<svg width="38" height="37" viewBox="0 0 38 37" fill="none" xmlns="http://www.w3.org/2000/svg">
<path d="M29.9069 29.4998C31.4264 27.6899 32.4983 25.5477 33.036 23.2465C33.5736 20.9453 33.5617 18.5498 33.0013 16.254C32.4409 13.9583 31.3478 11.8267 29.8104 10.032C28.2731 8.23729 26.3346 6.82984 24.1521 5.92361C21.9696 5.01738 19.6044 4.63784 17.2479 4.81574C14.8915 4.99364 12.61 5.72396 10.5883 6.94758C8.5666 8.17119 6.86146 9.85371 5.61094 11.8589C4.36043 13.8641 3.59969 16.1356 3.39033 18.4894L9.84077 19.0632C9.96004 17.7222 10.3934 16.4281 11.1059 15.2857C11.8183 14.1434 12.7897 13.1849 13.9415 12.4878C15.0932 11.7907 16.393 11.3746 17.7354 11.2733C19.0779 11.1719 20.4254 11.3881 21.6687 11.9044C22.9121 12.4207 24.0164 13.2225 24.8923 14.245C25.7681 15.2674 26.3909 16.4818 26.7101 17.7897C27.0294 19.0975 27.0361 20.4622 26.7298 21.7732C26.4236 23.0842 25.8129 24.3047 24.9472 25.3357L29.9069 29.4998Z" fill="#EBEBFF"/>
</svg>
