<svg width="99" height="101" viewBox="0 0 99 101" fill="none" xmlns="http://www.w3.org/2000/svg">
<path d="M98.2411 26.9706C94.1949 19.7881 88.5141 13.6594 81.6588 9.08081C74.8034 4.50219 66.9662 1.60229 58.7816 0.615922C50.5971 -0.370444 42.2953 0.584447 34.5484 3.40328C26.8016 6.22211 19.8274 10.8256 14.1906 16.8411C8.5538 22.8566 4.41283 30.115 2.10297 38.0286C-0.206881 45.9421 -0.620695 54.2884 0.895036 62.3916C2.41077 70.4949 5.81344 78.1273 10.8275 84.6708C15.8416 91.2144 22.3262 96.4852 29.7563 100.057L39.5429 79.6957C35.31 77.6611 31.6158 74.6583 28.7592 70.9304C25.9027 67.2026 23.9642 62.8544 23.1007 58.238C22.2372 53.6216 22.4729 48.8667 23.7889 44.3584C25.1048 39.85 27.4639 35.715 30.6752 32.2879C33.8864 28.8609 37.8596 26.2383 42.273 24.6324C46.6864 23.0265 51.4159 22.4825 56.0786 23.0444C60.7414 23.6064 65.2062 25.2584 69.1117 27.8669C73.0172 30.4753 76.2535 33.9668 78.5587 38.0586L98.2411 26.9706Z" fill="#6070FF"/>
</svg>
